<svg width="177" height="61" viewBox="0 0 177 61" fill="none" xmlns="http://www.w3.org/2000/svg">
<path d="M1.504 29.684C1.336 29.684 1.204 29.636 1.108 29.54C1.012 29.468 1.012 29.408 1.108 29.36C1.636 29.264 2.092 29.072 2.476 28.784C2.86 28.472 3.172 28.088 3.412 27.632C3.916 26.792 4.408 25.952 4.888 25.112C5.392 24.248 5.872 23.384 6.328 22.52C6.88 21.464 7.444 20.408 8.02 19.352C8.596 18.272 9.172 17.204 9.748 16.148C10.3 15.164 10.792 14.216 11.224 13.304C11.656 12.392 11.98 11.732 12.196 11.324C12.364 11.012 12.652 10.736 13.06 10.496C13.492 10.232 13.912 10.028 14.32 9.884C14.176 9.884 14.032 9.884 13.888 9.884C13.744 9.86 13.588 9.848 13.42 9.848C12.676 9.848 11.86 9.896 10.972 9.992C10.108 10.064 9.256 10.184 8.416 10.352C7.6 10.52 6.88 10.748 6.256 11.036C5.632 11.324 5.212 11.672 4.996 12.08C4.9 12.296 4.816 12.512 4.744 12.728C4.672 12.944 4.636 13.16 4.636 13.376C4.636 13.928 4.828 14.324 5.212 14.564C5.236 14.564 5.248 14.588 5.248 14.636C5.248 14.684 5.2 14.732 5.104 14.78C5.032 14.828 4.972 14.84 4.924 14.816C4.684 14.696 4.408 14.408 4.096 13.952C3.808 13.472 3.616 13.076 3.52 12.764C3.448 12.476 3.412 12.212 3.412 11.972C3.412 11.348 3.616 10.868 4.024 10.532C4.432 10.172 4.948 9.92 5.572 9.776C6.196 9.608 6.832 9.512 7.48 9.488C8.152 9.44 8.74 9.416 9.244 9.416C10.012 9.416 10.924 9.416 11.98 9.416C13.036 9.392 14.008 9.38 14.896 9.38C15.112 9.38 15.352 9.38 15.616 9.38C15.88 9.356 16.156 9.344 16.444 9.344C17.092 9.344 17.764 9.38 18.46 9.452C19.156 9.524 19.792 9.68 20.368 9.92C20.944 10.16 21.388 10.532 21.7 11.036C22.18 11.78 22.42 12.572 22.42 13.412C22.42 14.348 22.144 15.236 21.592 16.076C21.064 16.892 20.392 17.612 19.576 18.236C18.76 18.86 17.932 19.34 17.092 19.676C16.3 19.988 15.412 20.204 14.428 20.324C13.468 20.444 12.604 20.504 11.836 20.504C11.596 20.504 11.356 20.504 11.116 20.504C10.9 20.48 10.708 20.456 10.54 20.432C10.492 20.432 10.468 20.408 10.468 20.36C10.468 20.264 10.564 20.132 10.756 19.964C10.948 19.772 11.104 19.688 11.224 19.712C11.416 19.736 11.608 19.748 11.8 19.748C11.992 19.748 12.196 19.748 12.412 19.748C13.324 19.748 14.296 19.628 15.328 19.388C16.36 19.148 17.308 18.692 18.172 18.02C19.06 17.324 19.732 16.316 20.188 14.996C20.308 14.708 20.38 14.42 20.404 14.132C20.452 13.82 20.476 13.52 20.476 13.232C20.476 12.416 20.272 11.696 19.864 11.072C19.456 10.448 18.868 10.088 18.1 9.992C18.004 9.968 17.896 9.956 17.776 9.956C17.656 9.956 17.536 9.956 17.416 9.956C16.96 9.956 16.456 10.016 15.904 10.136C15.376 10.256 14.98 10.484 14.716 10.82C14.116 11.612 13.54 12.512 12.988 13.52C12.436 14.504 11.908 15.512 11.404 16.544C10.9 17.552 10.42 18.5 9.964 19.388C9.844 19.628 9.616 20.06 9.28 20.684C8.944 21.284 8.572 21.98 8.164 22.772C7.756 23.54 7.372 24.308 7.012 25.076C6.652 25.844 6.364 26.528 6.148 27.128C5.956 27.728 5.908 28.136 6.004 28.352C6.028 28.376 6.04 28.412 6.04 28.46C6.04 28.532 6.004 28.568 5.932 28.568C5.74 28.568 5.548 28.52 5.356 28.424C5.164 28.328 4.936 28.28 4.672 28.28C4.432 28.28 4.192 28.34 3.952 28.46C3.712 28.556 3.4 28.736 3.016 29C2.632 29.264 2.2 29.48 1.72 29.648C1.672 29.672 1.6 29.684 1.504 29.684ZM27.0286 29.216C26.6686 29.216 26.3446 29.144 26.0566 29C25.7926 28.856 25.6606 28.592 25.6606 28.208C25.6606 27.992 25.7086 27.752 25.8046 27.488C26.0206 26.936 26.3086 26.264 26.6686 25.472C27.0526 24.68 27.4366 23.912 27.8206 23.168C28.2046 22.4 28.5046 21.776 28.7206 21.296C28.8646 21.008 28.9366 20.804 28.9366 20.684C28.9366 20.468 28.8166 20.42 28.5766 20.54C28.3366 20.66 28.0726 20.828 27.7846 21.044C27.4966 21.26 27.2806 21.428 27.1366 21.548C26.5126 22.124 25.8526 22.808 25.1566 23.6C24.4846 24.368 23.8606 25.184 23.2846 26.048C22.7326 26.888 22.3006 27.728 21.9886 28.568C21.9646 28.712 21.8086 28.832 21.5206 28.928C21.2326 29.024 20.9686 29.072 20.7286 29.072C20.3446 29.072 20.2006 28.952 20.2966 28.712C20.8486 27.464 21.4126 26.084 21.9886 24.572C22.5886 23.06 23.2606 21.512 24.0046 19.928C24.5566 18.728 25.1686 17.492 25.8406 16.22C26.5366 14.948 27.3046 13.736 28.1446 12.584C28.9846 11.408 29.9086 10.376 30.9166 9.488C31.8046 8.72 32.7766 8.096 33.8326 7.616C34.9126 7.112 36.0766 6.86 37.3246 6.86C37.8766 6.86 38.3566 6.98 38.7646 7.22C39.1726 7.436 39.4006 7.832 39.4486 8.408V8.732C39.4486 9.068 39.4126 9.404 39.3406 9.74C39.3166 9.836 39.2206 9.884 39.0526 9.884C38.9806 9.884 38.9566 9.872 38.9806 9.848C39.0766 9.224 38.9086 8.78 38.4766 8.516C38.0686 8.252 37.5406 8.12 36.8926 8.12C35.7166 8.12 34.6366 8.336 33.6526 8.768C32.6686 9.2 31.7566 9.776 30.9166 10.496C29.6206 11.624 28.4926 13.064 27.5326 14.816C26.5726 16.568 25.7446 18.356 25.0486 20.18C24.7126 21.068 24.3766 21.956 24.0406 22.844C23.7286 23.732 23.4286 24.56 23.1406 25.328C24.2206 23.888 25.2526 22.652 26.2366 21.62C27.2446 20.588 28.1206 19.856 28.8646 19.424C29.4646 19.088 30.0046 18.92 30.4846 18.92C30.9406 18.92 31.1686 19.112 31.1686 19.496C31.1686 19.832 31.0006 20.264 30.6646 20.792C30.4966 21.056 30.2326 21.5 29.8726 22.124C29.5366 22.748 29.1766 23.432 28.7926 24.176C28.4326 24.896 28.1206 25.568 27.8566 26.192C27.5926 26.816 27.4606 27.272 27.4606 27.56C27.4606 27.944 27.6286 28.136 27.9646 28.136C28.1566 28.136 28.3726 28.076 28.6126 27.956C28.8766 27.836 29.0686 27.728 29.1886 27.632C29.8366 27.152 30.4726 26.564 31.0966 25.868C31.7206 25.172 32.2486 24.56 32.6806 24.032C32.7046 24.008 32.7166 24.044 32.7166 24.14C32.7166 24.236 32.6926 24.38 32.6446 24.572C32.6206 24.74 32.5486 24.884 32.4286 25.004C32.1646 25.364 31.8886 25.712 31.6006 26.048C31.3366 26.36 31.0726 26.672 30.8086 26.984C30.3526 27.512 29.8006 28.016 29.1526 28.496C28.5286 28.976 27.8206 29.216 27.0286 29.216ZM37.1786 29.108C36.9386 29.108 36.7346 29.06 36.5666 28.964C36.3986 28.868 36.3146 28.688 36.3146 28.424C36.3146 28.088 36.3986 27.704 36.5666 27.272C36.7346 26.84 36.9266 26.42 37.1426 26.012C37.3586 25.58 37.5506 25.232 37.7186 24.968C36.8786 25.856 36.0026 26.696 35.0906 27.488C34.6346 27.872 34.1306 28.232 33.5786 28.568C33.0266 28.904 32.4386 29.072 31.8146 29.072C31.5746 29.072 31.4066 29 31.3106 28.856C31.2146 28.688 31.1666 28.496 31.1666 28.28C31.1666 28.16 31.1786 28.076 31.2026 28.028C31.3226 27.092 31.6226 26.12 32.1026 25.112C32.5826 24.104 33.1706 23.156 33.8666 22.268C34.5626 21.38 35.2706 20.66 35.9906 20.108C36.8066 19.484 37.7066 19.172 38.6906 19.172H42.8306C42.9506 19.172 43.0106 19.22 43.0106 19.316C43.0106 19.508 42.9026 19.604 42.6866 19.604C42.4466 19.604 42.2066 19.76 41.9666 20.072C41.7266 20.36 41.5466 20.6 41.4266 20.792C41.2586 21.056 40.9946 21.5 40.6346 22.124C40.2746 22.748 39.9026 23.432 39.5186 24.176C39.1586 24.896 38.8466 25.568 38.5826 26.192C38.3186 26.816 38.1866 27.272 38.1866 27.56C38.1866 27.896 38.3546 28.064 38.6906 28.064C39.0506 28.064 39.4586 27.896 39.9146 27.56C40.3706 27.224 40.8266 26.816 41.2826 26.336C41.7626 25.832 42.1946 25.34 42.5786 24.86C42.9866 24.356 43.3106 23.96 43.5506 23.672C43.6946 23.816 43.6826 24.02 43.5146 24.284C43.3706 24.524 43.2386 24.716 43.1186 24.86C42.6386 25.484 42.0866 26.132 41.4626 26.804C40.8386 27.452 40.1546 28.004 39.4106 28.46C38.6906 28.892 37.9466 29.108 37.1786 29.108ZM33.2906 27.848C33.5786 27.848 33.9746 27.644 34.4786 27.236C35.0066 26.804 35.5706 26.276 36.1706 25.652C36.7706 25.004 37.3346 24.332 37.8626 23.636C38.3906 22.916 38.8226 22.268 39.1586 21.692C39.5186 21.092 39.6986 20.636 39.6986 20.324C39.6986 20.06 39.6146 19.88 39.4466 19.784C39.3026 19.688 39.1106 19.64 38.8706 19.64C38.4866 19.64 38.0666 19.784 37.6106 20.072C37.1786 20.336 36.8306 20.6 36.5666 20.864C36.2786 21.128 35.9306 21.548 35.5226 22.124C35.1386 22.676 34.7546 23.288 34.3706 23.96C33.9866 24.632 33.6626 25.28 33.3986 25.904C33.1346 26.528 33.0026 27.032 33.0026 27.416C33.0026 27.704 33.0986 27.848 33.2906 27.848ZM45.2406 29.072C44.5206 29.072 44.0286 28.904 43.7646 28.568C43.5006 28.208 43.3686 27.776 43.3686 27.272C43.3686 26.6 43.5126 25.88 43.8006 25.112C44.1126 24.344 44.3646 23.744 44.5566 23.312C44.2446 23.648 43.9446 23.972 43.6566 24.284C43.3686 24.596 43.1646 24.824 43.0446 24.968C42.9726 25.064 42.9126 25.112 42.8646 25.112C42.8166 25.112 42.7926 25.052 42.7926 24.932C42.7926 24.74 42.8526 24.56 42.9726 24.392C43.3086 23.96 43.6926 23.504 44.1246 23.024C44.5566 22.544 44.9766 22.04 45.3846 21.512C45.8646 20.624 46.3926 19.592 46.9686 18.416C47.5686 17.216 48.1806 15.992 48.8046 14.744C49.4526 13.472 50.0766 12.308 50.6766 11.252C51.3006 10.172 51.8526 9.308 52.3326 8.66C52.7406 8.492 53.1246 8.276 53.4846 8.012C53.8686 7.748 54.2406 7.508 54.6006 7.292C54.9846 7.052 55.3806 6.932 55.7886 6.932C56.0526 6.932 56.2446 7.004 56.3646 7.148C56.5086 7.292 56.6046 7.46 56.6526 7.652C56.6766 7.724 56.6886 7.856 56.6886 8.048C56.6886 8.6 56.4966 9.272 56.1126 10.064C55.7526 10.856 55.3206 11.636 54.8166 12.404C54.3366 13.148 53.9166 13.76 53.5566 14.24C52.5966 15.584 51.6126 16.808 50.6046 17.912C49.5966 18.992 48.6846 19.904 47.8686 20.648C47.0766 21.368 46.5006 21.896 46.1406 22.232C45.9726 22.544 45.7686 22.964 45.5286 23.492C45.3126 23.996 45.1206 24.536 44.9526 25.112C44.7846 25.664 44.7006 26.18 44.7006 26.66C44.7006 27.068 44.7966 27.416 44.9886 27.704C45.1806 27.968 45.5046 28.1 45.9606 28.1C46.0326 28.1 46.1046 28.1 46.1766 28.1C46.2486 28.1 46.3326 28.088 46.4286 28.064C46.8366 27.992 47.2806 27.764 47.7606 27.38C48.2406 26.996 48.7206 26.552 49.2006 26.048C49.6806 25.544 50.1126 25.064 50.4966 24.608C50.6646 24.416 50.8206 24.236 50.9646 24.068C51.1086 23.876 51.2046 23.744 51.2526 23.672C51.4206 23.84 51.4086 24.056 51.2166 24.32C51.0486 24.56 50.9046 24.764 50.7846 24.932C50.6166 25.148 50.3766 25.448 50.0646 25.832C49.7526 26.192 49.3926 26.588 48.9846 27.02C48.5286 27.476 47.9646 27.932 47.2926 28.388C46.6206 28.844 45.9366 29.072 45.2406 29.072ZM46.7526 20.792C47.4966 20.168 48.4326 19.28 49.5606 18.128C50.7126 16.952 51.8406 15.536 52.9446 13.88C53.0646 13.688 53.2566 13.364 53.5206 12.908C53.8086 12.452 54.0966 11.936 54.3846 11.36C54.6966 10.76 54.9606 10.184 55.1766 9.632C55.3926 9.056 55.5006 8.564 55.5006 8.156C55.5006 7.772 55.3926 7.58 55.1766 7.58C54.9126 7.58 54.5646 7.808 54.1326 8.264C53.6286 8.792 53.0526 9.572 52.4046 10.604C51.7806 11.612 51.1206 12.74 50.4246 13.988C49.7286 15.236 49.0566 16.46 48.4086 17.66C47.7846 18.86 47.2326 19.904 46.7526 20.792ZM44.1198 41.6C43.2078 41.6 42.3318 41.384 41.4918 40.952C40.6278 40.544 39.9918 39.908 39.5838 39.044C39.4158 38.732 39.3078 38.396 39.2598 38.036C39.2118 37.7 39.1878 37.364 39.1878 37.028V36.668C39.1878 36.476 39.2118 36.296 39.2598 36.128C39.3078 35.96 39.4398 35.876 39.6558 35.876C39.7038 35.876 39.7278 35.9 39.7278 35.948C39.7278 36.092 39.7158 36.236 39.6918 36.38C39.6678 36.524 39.6558 36.68 39.6558 36.848C39.6558 37.952 40.0158 38.792 40.7358 39.368C41.4318 39.944 42.3078 40.232 43.3638 40.232C43.7958 40.232 44.2398 40.184 44.6958 40.088C45.1518 39.992 45.5718 39.86 45.9558 39.692C47.4918 39.044 48.8238 38.108 49.9518 36.884C51.1038 35.66 52.0998 34.28 52.9398 32.744C53.8038 31.208 54.5598 29.636 55.2078 28.028C55.8798 26.396 56.5038 24.86 57.0798 23.42C56.5758 24.236 56.0238 24.968 55.4238 25.616C54.8238 26.24 54.1518 26.864 53.4078 27.488C52.9518 27.872 52.4478 28.232 51.8958 28.568C51.3678 28.904 50.7918 29.072 50.1678 29.072C49.9278 29.072 49.7598 29 49.6638 28.856C49.5678 28.688 49.5198 28.496 49.5198 28.28V28.028C49.6398 27.092 49.9398 26.12 50.4198 25.112C50.9238 24.104 51.5238 23.156 52.2198 22.268C52.9158 21.38 53.6238 20.66 54.3438 20.108C55.1598 19.484 56.0598 19.172 57.0438 19.172H61.1838C61.3038 19.172 61.3638 19.22 61.3638 19.316C61.3638 19.508 61.2558 19.604 61.0398 19.604C60.7758 19.604 60.5238 19.712 60.2838 19.928C60.0438 20.144 59.8638 20.348 59.7438 20.54C59.5038 20.924 59.1918 21.512 58.8078 22.304C58.4238 23.096 58.0038 24.008 57.5478 25.04C57.0918 26.048 56.6358 27.08 56.1798 28.136C55.7238 29.168 55.3038 30.14 54.9198 31.052C54.3438 32.42 53.6838 33.752 52.9398 35.048C52.2198 36.368 51.3558 37.544 50.3478 38.576C49.3638 39.632 48.1878 40.46 46.8198 41.06C46.0038 41.42 45.1038 41.6 44.1198 41.6ZM51.6438 27.848C51.9318 27.848 52.3278 27.644 52.8318 27.236C53.3358 26.804 53.8878 26.276 54.4878 25.652C55.0878 25.004 55.6518 24.332 56.1798 23.636C56.7078 22.916 57.1398 22.268 57.4758 21.692C57.8358 21.092 58.0158 20.636 58.0158 20.324C58.0158 20.06 57.9318 19.88 57.7638 19.784C57.6198 19.688 57.4278 19.64 57.1878 19.64C56.8038 19.64 56.3958 19.784 55.9638 20.072C55.5318 20.336 55.1838 20.6 54.9198 20.864C54.6318 21.128 54.2838 21.548 53.8758 22.124C53.4918 22.676 53.0958 23.288 52.6878 23.96C52.3038 24.632 51.9798 25.28 51.7158 25.904C51.4518 26.528 51.3198 27.032 51.3198 27.416C51.3198 27.704 51.4278 27.848 51.6438 27.848ZM65.4192 29.216C65.0592 29.216 64.7352 29.144 64.4472 29C64.1832 28.856 64.0512 28.592 64.0512 28.208C64.0512 27.992 64.0992 27.752 64.1952 27.488C64.4112 26.936 64.6992 26.264 65.0592 25.472C65.4432 24.68 65.8272 23.912 66.2112 23.168C66.5952 22.4 66.8952 21.776 67.1112 21.296C67.2552 21.008 67.3272 20.804 67.3272 20.684C67.3272 20.468 67.2072 20.42 66.9672 20.54C66.7272 20.66 66.4632 20.828 66.1752 21.044C65.8872 21.26 65.6712 21.428 65.5272 21.548C64.9032 22.124 64.2432 22.808 63.5472 23.6C62.8752 24.368 62.2512 25.184 61.6752 26.048C61.1232 26.888 60.6912 27.728 60.3792 28.568C60.3552 28.712 60.1992 28.832 59.9112 28.928C59.6232 29.024 59.3592 29.072 59.1192 29.072C58.7352 29.072 58.5912 28.952 58.6872 28.712C59.2392 27.464 59.8032 26.084 60.3792 24.572C60.9792 23.06 61.6512 21.512 62.3952 19.928C62.9472 18.728 63.5592 17.492 64.2312 16.22C64.9272 14.948 65.6952 13.736 66.5352 12.584C67.3752 11.408 68.2992 10.376 69.3072 9.488C70.1952 8.72 71.1672 8.096 72.2232 7.616C73.3032 7.112 74.4672 6.86 75.7152 6.86C76.2672 6.86 76.7472 6.98 77.1552 7.22C77.5632 7.436 77.7912 7.832 77.8392 8.408V8.732C77.8392 9.068 77.8032 9.404 77.7312 9.74C77.7072 9.836 77.6112 9.884 77.4432 9.884C77.3712 9.884 77.3472 9.872 77.3712 9.848C77.4672 9.224 77.2992 8.78 76.8672 8.516C76.4592 8.252 75.9312 8.12 75.2832 8.12C74.1072 8.12 73.0272 8.336 72.0432 8.768C71.0592 9.2 70.1472 9.776 69.3072 10.496C68.0112 11.624 66.8832 13.064 65.9232 14.816C64.9632 16.568 64.1352 18.356 63.4392 20.18C63.1032 21.068 62.7672 21.956 62.4312 22.844C62.1192 23.732 61.8192 24.56 61.5312 25.328C62.6112 23.888 63.6432 22.652 64.6272 21.62C65.6352 20.588 66.5112 19.856 67.2552 19.424C67.8552 19.088 68.3952 18.92 68.8752 18.92C69.3312 18.92 69.5592 19.112 69.5592 19.496C69.5592 19.832 69.3912 20.264 69.0552 20.792C68.8872 21.056 68.6232 21.5 68.2632 22.124C67.9272 22.748 67.5672 23.432 67.1832 24.176C66.8232 24.896 66.5112 25.568 66.2472 26.192C65.9832 26.816 65.8512 27.272 65.8512 27.56C65.8512 27.944 66.0192 28.136 66.3552 28.136C66.5472 28.136 66.7632 28.076 67.0032 27.956C67.2672 27.836 67.4592 27.728 67.5792 27.632C68.2272 27.152 68.8632 26.564 69.4872 25.868C70.1112 25.172 70.6392 24.56 71.0712 24.032C71.0952 24.008 71.1072 24.044 71.1072 24.14C71.1072 24.236 71.0832 24.38 71.0352 24.572C71.0112 24.74 70.9392 24.884 70.8192 25.004C70.5552 25.364 70.2792 25.712 69.9912 26.048C69.7272 26.36 69.4632 26.672 69.1992 26.984C68.7432 27.512 68.1912 28.016 67.5432 28.496C66.9192 28.976 66.2112 29.216 65.4192 29.216ZM75.5692 29.108C75.3292 29.108 75.1252 29.06 74.9572 28.964C74.7892 28.868 74.7052 28.688 74.7052 28.424C74.7052 28.088 74.7892 27.704 74.9572 27.272C75.1252 26.84 75.3172 26.42 75.5332 26.012C75.7492 25.58 75.9412 25.232 76.1092 24.968C75.2692 25.856 74.3932 26.696 73.4812 27.488C73.0252 27.872 72.5212 28.232 71.9692 28.568C71.4172 28.904 70.8292 29.072 70.2052 29.072C69.9652 29.072 69.7972 29 69.7012 28.856C69.6052 28.688 69.5572 28.496 69.5572 28.28C69.5572 28.16 69.5692 28.076 69.5932 28.028C69.7132 27.092 70.0132 26.12 70.4932 25.112C70.9732 24.104 71.5612 23.156 72.2572 22.268C72.9532 21.38 73.6612 20.66 74.3812 20.108C75.1972 19.484 76.0972 19.172 77.0812 19.172H81.2212C81.3412 19.172 81.4012 19.22 81.4012 19.316C81.4012 19.508 81.2932 19.604 81.0772 19.604C80.8372 19.604 80.5972 19.76 80.3572 20.072C80.1172 20.36 79.9372 20.6 79.8172 20.792C79.6492 21.056 79.3852 21.5 79.0252 22.124C78.6652 22.748 78.2932 23.432 77.9092 24.176C77.5492 24.896 77.2372 25.568 76.9732 26.192C76.7092 26.816 76.5772 27.272 76.5772 27.56C76.5772 27.896 76.7452 28.064 77.0812 28.064C77.4412 28.064 77.8492 27.896 78.3052 27.56C78.7612 27.224 79.2172 26.816 79.6732 26.336C80.1532 25.832 80.5852 25.34 80.9692 24.86C81.3772 24.356 81.7012 23.96 81.9412 23.672C82.0852 23.816 82.0732 24.02 81.9052 24.284C81.7612 24.524 81.6292 24.716 81.5092 24.86C81.0292 25.484 80.4772 26.132 79.8532 26.804C79.2292 27.452 78.5452 28.004 77.8012 28.46C77.0812 28.892 76.3372 29.108 75.5692 29.108ZM71.6812 27.848C71.9692 27.848 72.3652 27.644 72.8692 27.236C73.3972 26.804 73.9612 26.276 74.5612 25.652C75.1612 25.004 75.7252 24.332 76.2532 23.636C76.7812 22.916 77.2132 22.268 77.5492 21.692C77.9092 21.092 78.0892 20.636 78.0892 20.324C78.0892 20.06 78.0052 19.88 77.8372 19.784C77.6932 19.688 77.5012 19.64 77.2612 19.64C76.8772 19.64 76.4572 19.784 76.0012 20.072C75.5692 20.336 75.2212 20.6 74.9572 20.864C74.6692 21.128 74.3212 21.548 73.9132 22.124C73.5292 22.676 73.1452 23.288 72.7612 23.96C72.3772 24.632 72.0532 25.28 71.7892 25.904C71.5252 26.528 71.3932 27.032 71.3932 27.416C71.3932 27.704 71.4892 27.848 71.6812 27.848ZM81.4713 29.54C81.3753 29.54 81.3753 29.432 81.4713 29.216C81.5913 29 81.6993 28.76 81.7953 28.496C81.9153 28.232 82.0353 27.944 82.1553 27.632C82.3953 27.056 82.6593 26.408 82.9473 25.688C83.2353 24.968 83.5113 24.272 83.7753 23.6C84.0393 22.904 84.2673 22.316 84.4593 21.836C84.6753 21.332 84.8193 21.008 84.8913 20.864C84.5553 21.224 84.1473 21.68 83.6673 22.232C83.2113 22.76 82.7793 23.276 82.3713 23.78C81.9633 24.284 81.6513 24.68 81.4353 24.968C81.3633 25.064 81.3033 25.112 81.2553 25.112C81.2073 25.112 81.1833 25.052 81.1833 24.932C81.1833 24.74 81.2433 24.56 81.3633 24.392C81.8193 23.816 82.3233 23.168 82.8753 22.448C83.4513 21.728 83.9673 21.068 84.4233 20.468C84.8793 19.844 85.1673 19.436 85.2873 19.244C85.5513 19.196 85.9353 19.124 86.4393 19.028C86.9673 18.932 87.3273 18.8 87.5193 18.632C87.5913 18.56 87.6633 18.524 87.7353 18.524C87.7833 18.524 87.8073 18.572 87.8073 18.668C87.8313 18.74 87.8073 18.824 87.7353 18.92C87.5913 19.088 87.3393 19.484 86.9793 20.108C86.6433 20.708 86.2713 21.38 85.8633 22.124C85.4793 22.868 85.1193 23.54 84.7832 24.14C85.1673 23.684 85.5393 23.252 85.8993 22.844C86.2833 22.436 86.5473 22.148 86.6913 21.98C86.9793 21.692 87.3753 21.332 87.8793 20.9C88.3833 20.468 88.9113 20.072 89.4633 19.712C90.0153 19.352 90.4953 19.148 90.9033 19.1C90.9993 19.076 91.0833 19.064 91.1553 19.064C91.2273 19.064 91.2993 19.064 91.3713 19.064C91.8273 19.064 92.0553 19.232 92.0553 19.568C92.0553 19.712 92.0193 19.88 91.9473 20.072C91.8753 20.264 91.7793 20.456 91.6593 20.648C91.5153 20.936 91.2753 21.392 90.9393 22.016C90.6033 22.616 90.3033 23.168 90.0393 23.672L91.7313 21.98C92.0193 21.692 92.4153 21.332 92.9193 20.9C93.4233 20.468 93.9513 20.072 94.5033 19.712C95.0553 19.352 95.5353 19.148 95.9433 19.1C96.0393 19.076 96.1233 19.064 96.1953 19.064C96.2913 19.064 96.3633 19.064 96.4113 19.064C96.9393 19.064 97.2033 19.256 97.2033 19.64C97.2033 19.928 97.0473 20.312 96.7353 20.792C96.5673 21.056 96.3033 21.5 95.9433 22.124C95.5833 22.748 95.2113 23.432 94.8273 24.176C94.4673 24.896 94.1553 25.568 93.8913 26.192C93.6273 26.816 93.4953 27.272 93.4953 27.56C93.4953 27.896 93.6633 28.064 93.9993 28.064C94.3113 28.064 94.7073 27.884 95.1873 27.524C95.6913 27.14 96.1953 26.684 96.6993 26.156C97.2273 25.628 97.6833 25.124 98.0673 24.644C98.2353 24.452 98.3913 24.26 98.5352 24.068C98.7033 23.852 98.7993 23.732 98.8233 23.708C98.8713 23.756 98.8953 23.84 98.8953 23.96C98.8953 24.128 98.8353 24.296 98.7153 24.464C98.6193 24.608 98.5233 24.74 98.4273 24.86C97.9713 25.46 97.4433 26.084 96.8433 26.732C96.2673 27.38 95.6313 27.932 94.9353 28.388C94.2393 28.82 93.4953 29.072 92.7033 29.144C92.4633 29.168 92.2233 29.12 91.9833 29C91.7433 28.88 91.6233 28.688 91.6233 28.424C91.6233 28.088 91.7073 27.692 91.8753 27.236C92.0673 26.78 92.2713 26.324 92.4873 25.868C92.7273 25.412 92.9073 25.04 93.0273 24.752C93.4593 23.912 93.8553 23.12 94.2153 22.376C94.5753 21.632 94.8273 21.104 94.9713 20.792C95.0433 20.648 95.0793 20.528 95.0793 20.432C95.0793 20.264 94.9473 20.252 94.6833 20.396C94.4193 20.54 94.0953 20.756 93.7113 21.044C93.3513 21.332 93.0153 21.62 92.7033 21.908C92.3913 22.172 92.1873 22.352 92.0913 22.448C91.6833 22.856 91.1913 23.408 90.6152 24.104C90.0633 24.8 89.5473 25.532 89.0673 26.3C88.5873 27.044 88.2513 27.74 88.0593 28.388C87.8193 28.604 87.5913 28.712 87.3753 28.712C87.2073 28.712 87.0633 28.652 86.9433 28.532C86.8473 28.412 86.7993 28.268 86.7993 28.1C86.7993 27.62 86.9433 27.056 87.2313 26.408C87.5433 25.736 87.7953 25.184 87.9873 24.752C88.4193 23.912 88.8153 23.12 89.1753 22.376C89.5353 21.632 89.7873 21.104 89.9313 20.792C90.0033 20.648 90.0393 20.528 90.0393 20.432C90.0393 20.264 89.9073 20.252 89.6433 20.396C89.3793 20.54 89.0553 20.756 88.6713 21.044C88.3113 21.332 87.9753 21.62 87.6633 21.908C87.3513 22.172 87.1473 22.352 87.0513 22.448C86.4753 23.048 85.9353 23.66 85.4313 24.284C84.9513 24.908 84.5433 25.58 84.2073 26.3C84.0153 26.732 83.8113 27.212 83.5953 27.74C83.3793 28.268 83.1993 28.712 83.0553 29.072C82.7433 29.096 82.4313 29.18 82.1193 29.324C81.8073 29.468 81.5913 29.54 81.4713 29.54ZM111.951 30.044C110.679 30.044 109.455 29.852 108.279 29.468C107.127 29.108 106.191 28.496 105.471 27.632C104.751 26.768 104.391 25.604 104.391 24.14C104.391 22.58 104.691 21.056 105.291 19.568C105.891 18.08 106.695 16.7 107.703 15.428C108.711 14.132 109.839 13.016 111.087 12.08C112.191 11.24 113.463 10.556 114.903 10.028C116.367 9.5 117.819 9.236 119.259 9.236C119.859 9.236 120.423 9.284 120.951 9.38C121.479 9.452 122.019 9.62 122.571 9.884C123.051 10.1 123.435 10.376 123.723 10.712C124.011 11.024 124.155 11.384 124.155 11.792C124.155 11.84 124.155 11.9 124.155 11.972C124.155 12.044 124.143 12.104 124.119 12.152C124.023 12.536 123.795 12.98 123.435 13.484C123.099 13.964 122.835 14.468 122.643 14.996C122.619 15.092 122.487 15.176 122.247 15.248C122.007 15.296 121.911 15.272 121.959 15.176C122.151 14.864 122.295 14.48 122.391 14.024C122.511 13.568 122.571 13.112 122.571 12.656C122.571 12.32 122.535 12.008 122.463 11.72C122.415 11.408 122.319 11.144 122.175 10.928C121.935 10.496 121.563 10.196 121.059 10.028C120.555 9.86 120.015 9.776 119.439 9.776C118.887 9.776 118.335 9.836 117.783 9.956C117.231 10.076 116.751 10.208 116.343 10.352C114.951 10.856 113.619 11.648 112.347 12.728C111.219 13.712 110.211 14.852 109.323 16.148C108.459 17.444 107.775 18.776 107.271 20.144C106.767 21.512 106.515 22.82 106.515 24.068C106.515 25.34 106.791 26.348 107.343 27.092C107.895 27.836 108.615 28.364 109.503 28.676C110.391 28.988 111.351 29.144 112.383 29.144C113.295 29.144 114.195 29.048 115.083 28.856C115.995 28.664 116.823 28.424 117.567 28.136C118.839 27.656 119.979 27.068 120.987 26.372C122.019 25.676 122.979 24.776 123.867 23.672C123.987 23.552 124.071 23.492 124.119 23.492C124.191 23.492 124.227 23.54 124.227 23.636C124.227 23.828 124.131 24.056 123.939 24.32C123.123 25.424 122.199 26.348 121.167 27.092C120.135 27.836 119.031 28.448 117.855 28.928C117.063 29.24 116.139 29.504 115.083 29.72C114.051 29.936 113.007 30.044 111.951 30.044ZM123.808 29.072C123.424 29.072 123.076 29 122.764 28.856C122.476 28.688 122.332 28.34 122.332 27.812C122.332 26.972 122.548 26.132 122.98 25.292C123.412 24.428 123.856 23.672 124.312 23.024C124.72 22.472 125.176 21.956 125.68 21.476C126.208 20.972 126.772 20.54 127.372 20.18C127.756 19.94 128.272 19.688 128.92 19.424C129.592 19.136 130.156 18.992 130.612 18.992C130.996 18.992 131.332 19.1 131.62 19.316C131.908 19.508 132.052 19.868 132.052 20.396C132.052 21.212 131.836 22.052 131.404 22.916C130.996 23.756 130.564 24.5 130.108 25.148C129.892 25.436 129.676 25.712 129.46 25.976C129.244 26.216 129.004 26.468 128.74 26.732C129.628 26.732 130.444 26.48 131.188 25.976C131.932 25.448 132.58 24.812 133.132 24.068L133.204 23.996C133.276 23.996 133.312 24.068 133.312 24.212C133.312 24.38 133.264 24.536 133.168 24.68C132.688 25.352 132.088 25.952 131.368 26.48C130.648 26.984 129.832 27.236 128.92 27.236C128.824 27.236 128.728 27.236 128.632 27.236C128.536 27.236 128.44 27.224 128.344 27.2C127 28.448 125.488 29.072 123.808 29.072ZM124.744 28.46C125.08 28.46 125.44 28.34 125.824 28.1C126.232 27.86 126.544 27.632 126.76 27.416C127.168 27.008 127.54 26.576 127.876 26.12C128.212 25.64 128.524 25.16 128.812 24.68C129.148 24.104 129.484 23.42 129.82 22.628C130.156 21.836 130.324 21.092 130.324 20.396C130.324 19.844 130.132 19.568 129.748 19.568C129.436 19.568 129.052 19.7 128.596 19.964C128.164 20.228 127.84 20.468 127.624 20.684C126.808 21.524 126.124 22.436 125.572 23.42C125.26 23.972 124.924 24.62 124.564 25.364C124.204 26.108 124.024 26.792 124.024 27.416C124.024 27.512 124.024 27.608 124.024 27.704C124.048 27.776 124.072 27.86 124.096 27.956C124.192 28.292 124.408 28.46 124.744 28.46ZM134.199 29.108C133.959 29.108 133.755 29.06 133.587 28.964C133.419 28.868 133.335 28.688 133.335 28.424C133.335 28.088 133.419 27.692 133.587 27.236C133.779 26.78 133.983 26.324 134.199 25.868C134.415 25.412 134.595 25.04 134.739 24.752C134.859 24.536 135.015 24.2 135.207 23.744C135.423 23.264 135.639 22.772 135.855 22.268C136.095 21.74 136.287 21.296 136.431 20.936C136.599 20.576 136.683 20.396 136.683 20.396C136.467 20.636 136.179 20.972 135.819 21.404C135.483 21.836 135.111 22.292 134.703 22.772C134.319 23.228 133.959 23.66 133.623 24.068C133.311 24.476 133.083 24.776 132.939 24.968C132.867 25.064 132.807 25.112 132.759 25.112C132.711 25.112 132.687 25.052 132.687 24.932C132.687 24.74 132.747 24.56 132.867 24.392C133.155 24.032 133.503 23.6 133.911 23.096C134.319 22.568 134.727 22.04 135.135 21.512C135.567 20.984 135.939 20.516 136.251 20.108C136.059 20.108 135.807 20.12 135.495 20.144C135.207 20.168 134.943 20.204 134.703 20.252C134.463 20.276 134.331 20.288 134.307 20.288C134.187 20.288 134.199 20.192 134.343 20C134.487 19.808 134.679 19.616 134.919 19.424C135.159 19.232 135.339 19.136 135.459 19.136C135.483 19.136 135.675 19.148 136.035 19.172C136.395 19.172 136.659 19.172 136.827 19.172C137.307 18.524 137.775 17.78 138.231 16.94C138.711 16.1 139.179 15.176 139.635 14.168C139.827 14.144 140.151 14.012 140.607 13.772C141.087 13.508 141.459 13.244 141.723 12.98C141.843 12.86 141.939 12.8 142.011 12.8C142.155 12.8 142.155 12.896 142.011 13.088C141.843 13.28 141.555 13.688 141.147 14.312C140.739 14.912 140.283 15.644 139.779 16.508C139.275 17.348 138.795 18.236 138.339 19.172H141.255C141.519 19.172 141.651 19.208 141.651 19.28C141.651 19.376 141.471 19.472 141.111 19.568C140.703 19.688 140.271 19.76 139.815 19.784C139.383 19.808 138.975 19.856 138.591 19.928C138.231 20 137.967 20.156 137.799 20.396C137.655 20.564 137.451 20.924 137.187 21.476C136.923 22.028 136.635 22.664 136.323 23.384C136.035 24.08 135.783 24.788 135.567 25.508C135.351 26.204 135.219 26.792 135.171 27.272V27.416C135.171 27.608 135.231 27.764 135.351 27.884C135.471 28.004 135.591 28.064 135.711 28.064C136.023 28.064 136.419 27.872 136.899 27.488C137.403 27.104 137.919 26.648 138.447 26.12C138.975 25.568 139.431 25.064 139.815 24.608C139.983 24.416 140.127 24.236 140.247 24.068C140.391 23.9 140.475 23.792 140.499 23.744C140.547 23.84 140.571 23.912 140.571 23.96C140.571 24.104 140.523 24.26 140.427 24.428C140.355 24.596 140.271 24.74 140.175 24.86C139.719 25.46 139.167 26.096 138.519 26.768C137.871 27.416 137.175 27.968 136.431 28.424C135.711 28.88 134.967 29.108 134.199 29.108ZM141.336 29.108C141.096 29.108 140.892 29.06 140.724 28.964C140.556 28.868 140.472 28.688 140.472 28.424C140.472 28.088 140.556 27.692 140.724 27.236C140.916 26.78 141.12 26.324 141.336 25.868C141.552 25.412 141.732 25.04 141.876 24.752C141.996 24.536 142.152 24.2 142.344 23.744C142.56 23.264 142.776 22.772 142.992 22.268C143.232 21.74 143.424 21.296 143.568 20.936C143.736 20.576 143.82 20.396 143.82 20.396C143.604 20.636 143.316 20.972 142.956 21.404C142.62 21.836 142.248 22.292 141.84 22.772C141.456 23.228 141.096 23.66 140.76 24.068C140.448 24.476 140.22 24.776 140.076 24.968C140.004 25.064 139.944 25.112 139.896 25.112C139.848 25.112 139.824 25.052 139.824 24.932C139.824 24.74 139.884 24.56 140.004 24.392C140.292 24.032 140.64 23.6 141.048 23.096C141.456 22.568 141.864 22.04 142.272 21.512C142.704 20.984 143.076 20.516 143.388 20.108C143.196 20.108 142.944 20.12 142.632 20.144C142.344 20.168 142.08 20.204 141.84 20.252C141.6 20.276 141.468 20.288 141.444 20.288C141.324 20.288 141.336 20.192 141.48 20C141.624 19.808 141.816 19.616 142.056 19.424C142.296 19.232 142.476 19.136 142.596 19.136C142.62 19.136 142.812 19.148 143.172 19.172C143.532 19.172 143.796 19.172 143.964 19.172C144.444 18.524 144.912 17.78 145.368 16.94C145.848 16.1 146.316 15.176 146.772 14.168C146.964 14.144 147.288 14.012 147.744 13.772C148.224 13.508 148.596 13.244 148.86 12.98C148.98 12.86 149.076 12.8 149.148 12.8C149.292 12.8 149.292 12.896 149.148 13.088C148.98 13.28 148.692 13.688 148.284 14.312C147.876 14.912 147.42 15.644 146.916 16.508C146.412 17.348 145.932 18.236 145.476 19.172H148.392C148.656 19.172 148.788 19.208 148.788 19.28C148.788 19.376 148.608 19.472 148.248 19.568C147.84 19.688 147.408 19.76 146.952 19.784C146.52 19.808 146.112 19.856 145.728 19.928C145.368 20 145.104 20.156 144.936 20.396C144.792 20.564 144.588 20.924 144.324 21.476C144.06 22.028 143.772 22.664 143.46 23.384C143.172 24.08 142.92 24.788 142.704 25.508C142.488 26.204 142.356 26.792 142.308 27.272V27.416C142.308 27.608 142.368 27.764 142.488 27.884C142.608 28.004 142.728 28.064 142.848 28.064C143.16 28.064 143.556 27.872 144.036 27.488C144.54 27.104 145.056 26.648 145.584 26.12C146.112 25.568 146.568 25.064 146.952 24.608C147.12 24.416 147.264 24.236 147.384 24.068C147.528 23.9 147.612 23.792 147.636 23.744C147.684 23.84 147.708 23.912 147.708 23.96C147.708 24.104 147.66 24.26 147.564 24.428C147.492 24.596 147.408 24.74 147.312 24.86C146.856 25.46 146.304 26.096 145.656 26.768C145.008 27.416 144.312 27.968 143.568 28.424C142.848 28.88 142.104 29.108 141.336 29.108ZM151.929 29.108C151.689 29.108 151.485 29.06 151.317 28.964C151.149 28.868 151.065 28.688 151.065 28.424C151.065 28.088 151.149 27.704 151.317 27.272C151.485 26.84 151.677 26.42 151.893 26.012C152.109 25.58 152.301 25.232 152.469 24.968C151.629 25.856 150.753 26.696 149.841 27.488C149.385 27.872 148.881 28.232 148.329 28.568C147.777 28.904 147.189 29.072 146.565 29.072C146.325 29.072 146.157 29 146.061 28.856C145.965 28.688 145.917 28.496 145.917 28.28C145.917 28.16 145.929 28.076 145.953 28.028C146.073 27.092 146.373 26.12 146.853 25.112C147.333 24.104 147.921 23.156 148.617 22.268C149.313 21.38 150.021 20.66 150.741 20.108C151.557 19.484 152.457 19.172 153.441 19.172H157.581C157.701 19.172 157.761 19.22 157.761 19.316C157.761 19.508 157.653 19.604 157.437 19.604C157.197 19.604 156.957 19.76 156.717 20.072C156.477 20.36 156.297 20.6 156.177 20.792C156.009 21.056 155.745 21.5 155.385 22.124C155.025 22.748 154.653 23.432 154.269 24.176C153.909 24.896 153.597 25.568 153.333 26.192C153.069 26.816 152.937 27.272 152.937 27.56C152.937 27.896 153.105 28.064 153.441 28.064C153.801 28.064 154.209 27.896 154.665 27.56C155.121 27.224 155.577 26.816 156.033 26.336C156.513 25.832 156.945 25.34 157.329 24.86C157.737 24.356 158.061 23.96 158.301 23.672C158.445 23.816 158.433 24.02 158.265 24.284C158.121 24.524 157.989 24.716 157.869 24.86C157.389 25.484 156.837 26.132 156.213 26.804C155.589 27.452 154.905 28.004 154.161 28.46C153.441 28.892 152.697 29.108 151.929 29.108ZM148.041 27.848C148.329 27.848 148.725 27.644 149.229 27.236C149.757 26.804 150.321 26.276 150.921 25.652C151.521 25.004 152.085 24.332 152.613 23.636C153.141 22.916 153.573 22.268 153.909 21.692C154.269 21.092 154.449 20.636 154.449 20.324C154.449 20.06 154.365 19.88 154.197 19.784C154.053 19.688 153.861 19.64 153.621 19.64C153.237 19.64 152.817 19.784 152.361 20.072C151.929 20.336 151.581 20.6 151.317 20.864C151.029 21.128 150.681 21.548 150.273 22.124C149.889 22.676 149.505 23.288 149.121 23.96C148.737 24.632 148.413 25.28 148.149 25.904C147.885 26.528 147.753 27.032 147.753 27.416C147.753 27.704 147.849 27.848 148.041 27.848ZM151.171 41.6C150.259 41.6 149.383 41.384 148.543 40.952C147.679 40.544 147.043 39.908 146.635 39.044C146.467 38.732 146.359 38.396 146.311 38.036C146.263 37.7 146.239 37.364 146.239 37.028V36.668C146.239 36.476 146.263 36.296 146.311 36.128C146.359 35.96 146.491 35.876 146.707 35.876C146.755 35.876 146.779 35.9 146.779 35.948C146.779 36.092 146.767 36.236 146.743 36.38C146.719 36.524 146.707 36.68 146.707 36.848C146.707 37.952 147.067 38.792 147.787 39.368C148.483 39.944 149.359 40.232 150.415 40.232C150.847 40.232 151.291 40.184 151.747 40.088C152.203 39.992 152.623 39.86 153.007 39.692C154.543 39.044 155.875 38.108 157.003 36.884C158.155 35.66 159.151 34.28 159.991 32.744C160.855 31.208 161.611 29.636 162.259 28.028C162.931 26.396 163.555 24.86 164.131 23.42C163.627 24.236 163.075 24.968 162.475 25.616C161.875 26.24 161.203 26.864 160.459 27.488C160.003 27.872 159.499 28.232 158.947 28.568C158.419 28.904 157.843 29.072 157.219 29.072C156.979 29.072 156.811 29 156.715 28.856C156.619 28.688 156.571 28.496 156.571 28.28V28.028C156.691 27.092 156.991 26.12 157.471 25.112C157.975 24.104 158.575 23.156 159.271 22.268C159.967 21.38 160.675 20.66 161.395 20.108C162.211 19.484 163.111 19.172 164.095 19.172H168.235C168.355 19.172 168.415 19.22 168.415 19.316C168.415 19.508 168.307 19.604 168.091 19.604C167.827 19.604 167.575 19.712 167.335 19.928C167.095 20.144 166.915 20.348 166.795 20.54C166.555 20.924 166.243 21.512 165.859 22.304C165.475 23.096 165.055 24.008 164.599 25.04C164.143 26.048 163.687 27.08 163.231 28.136C162.775 29.168 162.355 30.14 161.971 31.052C161.395 32.42 160.735 33.752 159.991 35.048C159.271 36.368 158.407 37.544 157.399 38.576C156.415 39.632 155.239 40.46 153.871 41.06C153.055 41.42 152.155 41.6 151.171 41.6ZM158.695 27.848C158.983 27.848 159.379 27.644 159.883 27.236C160.387 26.804 160.939 26.276 161.539 25.652C162.139 25.004 162.703 24.332 163.231 23.636C163.759 22.916 164.191 22.268 164.527 21.692C164.887 21.092 165.067 20.636 165.067 20.324C165.067 20.06 164.983 19.88 164.815 19.784C164.671 19.688 164.479 19.64 164.239 19.64C163.855 19.64 163.447 19.784 163.015 20.072C162.583 20.336 162.235 20.6 161.971 20.864C161.683 21.128 161.335 21.548 160.927 22.124C160.543 22.676 160.147 23.288 159.739 23.96C159.355 24.632 159.031 25.28 158.767 25.904C158.503 26.528 158.371 27.032 158.371 27.416C158.371 27.704 158.479 27.848 158.695 27.848ZM169.194 29.288C168.21 29.288 167.526 29.096 167.142 28.712C166.758 28.328 166.566 27.86 166.566 27.308C166.566 26.612 166.746 25.868 167.106 25.076C167.49 24.284 167.85 23.612 168.186 23.06C168.57 22.484 169.086 21.884 169.734 21.26C170.382 20.636 171.09 20.108 171.858 19.676C172.626 19.244 173.37 19.028 174.09 19.028C174.714 19.028 175.146 19.184 175.386 19.496C175.626 19.784 175.746 20.132 175.746 20.54C175.746 21.284 175.518 21.896 175.062 22.376C174.63 22.856 174.09 23.252 173.442 23.564C172.794 23.852 172.17 24.092 171.57 24.284C171.21 24.38 170.79 24.476 170.31 24.572C169.83 24.668 169.374 24.716 168.942 24.716C168.774 25.148 168.642 25.568 168.546 25.976C168.45 26.384 168.402 26.756 168.402 27.092C168.402 27.5 168.498 27.836 168.69 28.1C168.906 28.364 169.254 28.496 169.734 28.496C169.926 28.496 170.154 28.472 170.418 28.424C170.682 28.376 170.97 28.304 171.282 28.208C172.002 27.968 172.71 27.584 173.406 27.056C174.102 26.528 174.738 25.964 175.314 25.364C175.914 24.74 176.37 24.224 176.682 23.816C176.754 23.888 176.79 23.972 176.79 24.068C176.79 24.188 176.706 24.38 176.538 24.644C176.058 25.316 175.434 26.012 174.666 26.732C173.898 27.452 173.046 28.064 172.11 28.568C171.174 29.048 170.202 29.288 169.194 29.288ZM169.23 23.996C169.542 24.02 169.89 24.02 170.274 23.996C170.682 23.948 171.078 23.864 171.462 23.744C172.446 23.456 173.154 23 173.586 22.376C174.042 21.728 174.27 21.152 174.27 20.648C174.27 20.36 174.21 20.12 174.09 19.928C173.97 19.736 173.778 19.64 173.514 19.64C172.818 19.64 172.194 19.904 171.642 20.432C171.09 20.936 170.61 21.524 170.202 22.196C169.794 22.868 169.47 23.468 169.23 23.996Z" fill="black"/>
<path d="M81.3225 44.24C80.8265 44.24 80.3545 44.104 79.9065 43.832C79.4585 43.544 79.1225 43.112 78.8985 42.536C78.8185 42.328 78.7625 42.112 78.7305 41.888C78.6985 41.648 78.6825 41.416 78.6825 41.192C78.6825 40.968 78.7225 40.856 78.8025 40.856C78.8985 40.856 78.9465 40.92 78.9465 41.048C78.9465 41.8 79.1305 42.368 79.4985 42.752C79.8825 43.136 80.3545 43.328 80.9145 43.328C81.4745 43.328 82.0185 43.168 82.5465 42.848C83.0745 42.528 83.5625 42.12 84.0105 41.624C84.7305 40.824 85.3465 40.016 85.8585 39.2C86.3705 38.368 86.8345 37.52 87.2505 36.656C87.6825 35.776 88.1145 34.864 88.5465 33.92C88.7705 33.44 89.0425 32.992 89.3625 32.576C89.6985 32.144 90.0665 31.8 90.4665 31.544H89.7465C89.5065 31.544 89.1705 31.56 88.7385 31.592C88.3225 31.624 87.8985 31.696 87.4665 31.808C87.0345 31.92 86.6745 32.104 86.3865 32.36C86.0985 32.616 85.9705 32.96 86.0025 33.392C86.0185 33.52 86.0665 33.696 86.1465 33.92C86.2265 34.128 86.2745 34.256 86.2905 34.304L86.0505 34.496C85.9545 34.32 85.8345 34.12 85.6905 33.896C85.5465 33.656 85.4105 33.424 85.2825 33.2C85.1705 32.976 85.1065 32.808 85.0905 32.696C85.0745 32.536 85.0825 32.328 85.1145 32.072C85.1625 31.816 85.2905 31.592 85.4985 31.4C85.7385 31.192 86.0665 31.056 86.4825 30.992C86.9145 30.928 87.3545 30.896 87.8025 30.896C88.2345 30.896 88.6505 30.912 89.0505 30.944C89.4505 30.976 89.7785 30.992 90.0345 30.992L93.8745 30.968L93.5625 31.328C93.4025 31.328 93.1705 31.344 92.8665 31.376C92.5785 31.392 92.2745 31.432 91.9545 31.496C91.5705 31.56 91.1305 31.776 90.6345 32.144C90.1385 32.496 89.7145 32.968 89.3625 33.56L89.1465 33.92C88.9065 34.464 88.6345 35.112 88.3305 35.864C88.0265 36.616 87.6825 37.408 87.2985 38.24C86.9305 39.072 86.5225 39.88 86.0745 40.664C85.6265 41.432 85.1305 42.104 84.5865 42.68C84.1865 43.112 83.6825 43.48 83.0745 43.784C82.4665 44.088 81.8825 44.24 81.3225 44.24ZM88.1681 44.36C88.1041 44.36 88.1041 44.288 88.1681 44.144C88.2481 44 88.3201 43.84 88.3841 43.664C88.4641 43.488 88.5441 43.296 88.6241 43.088C88.7841 42.704 88.9601 42.272 89.1521 41.792C89.3441 41.312 89.5281 40.848 89.7041 40.4C89.8801 39.936 90.0321 39.544 90.1601 39.224C90.3041 38.888 90.4001 38.672 90.4481 38.576C90.2241 38.816 89.9521 39.12 89.6321 39.488C89.3281 39.84 89.0401 40.184 88.7681 40.52C88.4961 40.856 88.2881 41.12 88.1441 41.312C88.0961 41.376 88.0561 41.408 88.0241 41.408C87.9921 41.408 87.9761 41.368 87.9761 41.288C87.9761 41.16 88.0161 41.04 88.0961 40.928C88.4001 40.544 88.7361 40.112 89.1041 39.632C89.4881 39.152 89.8321 38.712 90.1361 38.312C90.4401 37.896 90.6321 37.624 90.7121 37.496C90.8881 37.464 91.1441 37.416 91.4801 37.352C91.8321 37.288 92.0721 37.2 92.2001 37.088C92.2481 37.04 92.2961 37.016 92.3441 37.016C92.3761 37.016 92.3921 37.048 92.3921 37.112C92.4081 37.16 92.3921 37.216 92.3441 37.28C92.2481 37.392 92.0801 37.656 91.8401 38.072C91.6161 38.472 91.3681 38.92 91.0961 39.416C90.8401 39.912 90.6001 40.36 90.3761 40.76C90.5681 40.504 90.7761 40.256 91.0001 40.016C91.2241 39.776 91.4401 39.544 91.6481 39.32C91.8401 39.128 92.1041 38.888 92.4401 38.6C92.7761 38.312 93.1281 38.048 93.4961 37.808C93.8641 37.568 94.1841 37.432 94.4561 37.4C94.5201 37.384 94.5761 37.376 94.6241 37.376C94.6881 37.376 94.7361 37.376 94.7681 37.376C95.1201 37.376 95.2961 37.504 95.2961 37.76C95.2961 37.952 95.1921 38.208 94.9841 38.528C94.8721 38.704 94.6961 39 94.4561 39.416C94.2321 39.816 94.0001 40.256 93.7601 40.736C93.5361 41.2 93.3361 41.64 93.1601 42.056C93.0001 42.456 92.9201 42.752 92.9201 42.944C92.9201 43.168 93.0321 43.28 93.2561 43.28C93.5281 43.28 93.8241 43.144 94.1441 42.872C94.4801 42.6 94.8401 42.256 95.2241 41.84C95.6081 41.408 95.9921 40.952 96.3761 40.472C96.4081 40.504 96.4241 40.56 96.4241 40.64C96.4241 40.752 96.3841 40.864 96.3041 40.976C96.2401 41.072 96.1761 41.16 96.1121 41.24C95.9521 41.448 95.7361 41.712 95.4641 42.032C95.2081 42.336 94.9441 42.64 94.6721 42.944C94.4001 43.232 94.1521 43.464 93.9281 43.64C93.7681 43.752 93.5601 43.872 93.3041 44C93.0481 44.128 92.7921 44.192 92.5361 44.192C92.2481 44.192 92.0481 44.12 91.9361 43.976C91.8241 43.816 91.7681 43.624 91.7681 43.4C91.7681 43.144 91.8161 42.872 91.9121 42.584C92.0081 42.296 92.1121 42.024 92.2241 41.768C92.3521 41.496 92.4481 41.296 92.5121 41.168C92.8001 40.608 93.0641 40.08 93.3041 39.584C93.5441 39.088 93.7121 38.736 93.8081 38.528C93.8561 38.432 93.8801 38.352 93.8801 38.288C93.8801 38.176 93.7921 38.168 93.6161 38.264C93.4401 38.36 93.2241 38.504 92.9681 38.696C92.7281 38.888 92.5041 39.08 92.2961 39.272C92.0881 39.448 91.9521 39.568 91.8881 39.632C91.2961 40.256 90.7761 40.952 90.3281 41.72C89.8961 42.472 89.5281 43.248 89.2241 44.048C89.0161 44.064 88.8081 44.12 88.6001 44.216C88.3921 44.312 88.2481 44.36 88.1681 44.36ZM99.21 44.072C99.05 44.072 98.914 44.04 98.802 43.976C98.69 43.912 98.634 43.792 98.634 43.616C98.634 43.392 98.69 43.136 98.802 42.848C98.914 42.56 99.042 42.28 99.186 42.008C99.33 41.72 99.458 41.488 99.57 41.312C99.01 41.904 98.426 42.464 97.818 42.992C97.514 43.248 97.178 43.488 96.81 43.712C96.442 43.936 96.05 44.048 95.634 44.048C95.474 44.048 95.362 44 95.298 43.904C95.234 43.792 95.202 43.664 95.202 43.52C95.202 43.44 95.21 43.384 95.226 43.352C95.306 42.728 95.506 42.08 95.826 41.408C96.146 40.736 96.538 40.104 97.002 39.512C97.466 38.92 97.938 38.44 98.418 38.072C98.786 37.8 99.138 37.632 99.474 37.568C99.81 37.488 100.178 37.448 100.578 37.448H101.37C101.626 37.016 101.89 36.536 102.162 36.008C102.45 35.464 102.73 34.928 103.002 34.4C103.29 33.872 103.554 33.408 103.794 33.008C104.45 31.888 105.17 30.992 105.954 30.32C106.754 29.648 107.642 29.312 108.618 29.312C108.826 29.312 109.018 29.376 109.194 29.504C109.37 29.616 109.45 29.792 109.434 30.032L109.386 30.896C109.386 30.912 109.37 30.936 109.338 30.968C109.306 30.984 109.282 30.992 109.266 30.992C109.25 30.992 109.226 30.976 109.194 30.944C109.146 30.656 109.002 30.44 108.762 30.296C108.522 30.136 108.226 30.056 107.874 30.056C107.762 30.056 107.634 30.064 107.49 30.08C107.362 30.096 107.234 30.128 107.106 30.176C106.658 30.336 106.234 30.664 105.834 31.16C105.434 31.64 105.002 32.28 104.538 33.08C104.378 33.384 104.17 33.784 103.914 34.28C103.658 34.76 103.386 35.28 103.098 35.84C102.826 36.4 102.562 36.944 102.306 37.472C102.066 38 101.858 38.448 101.682 38.816C101.602 39.008 101.466 39.304 101.274 39.704C101.082 40.088 100.874 40.512 100.65 40.976C100.442 41.424 100.258 41.84 100.098 42.224C99.954 42.608 99.882 42.88 99.882 43.04C99.882 43.264 99.978 43.376 100.17 43.376C100.362 43.376 100.618 43.264 100.938 43.04C101.258 42.8 101.586 42.512 101.922 42.176C102.274 41.824 102.586 41.488 102.858 41.168C103.146 40.848 103.346 40.608 103.458 40.448C103.506 40.496 103.53 40.552 103.53 40.616C103.53 40.728 103.482 40.84 103.386 40.952C103.306 41.064 103.234 41.16 103.17 41.24C102.882 41.624 102.522 42.04 102.09 42.488C101.674 42.92 101.218 43.296 100.722 43.616C100.226 43.92 99.722 44.072 99.21 44.072ZM96.618 43.232C96.81 43.232 97.074 43.096 97.41 42.824C97.762 42.536 98.138 42.184 98.538 41.768C98.938 41.336 99.314 40.888 99.666 40.424C100.018 39.944 100.306 39.512 100.53 39.128C100.77 38.728 100.89 38.424 100.89 38.216C100.89 38.04 100.834 37.92 100.722 37.856C100.626 37.792 100.498 37.76 100.338 37.76C100.082 37.76 99.802 37.856 99.498 38.048C99.21 38.224 98.978 38.4 98.802 38.576C98.61 38.752 98.378 39.032 98.106 39.416C97.85 39.784 97.594 40.192 97.338 40.64C97.082 41.088 96.866 41.52 96.69 41.936C96.514 42.352 96.426 42.688 96.426 42.944C96.426 43.136 96.49 43.232 96.618 43.232ZM104.345 44.072C104.185 44.072 104.049 44.04 103.937 43.976C103.825 43.912 103.769 43.792 103.769 43.616C103.769 43.392 103.825 43.128 103.937 42.824C104.065 42.52 104.201 42.216 104.345 41.912C104.489 41.608 104.609 41.36 104.705 41.168C104.897 40.8 105.081 40.432 105.257 40.064C105.433 39.696 105.585 39.384 105.713 39.128C105.841 38.888 105.905 38.728 105.905 38.648C105.905 38.52 105.809 38.52 105.617 38.648C105.441 38.776 105.273 38.904 105.113 39.032C104.761 39.368 104.393 39.768 104.009 40.232C103.625 40.68 103.329 41.04 103.121 41.312C103.073 41.376 103.033 41.408 103.001 41.408C102.969 41.408 102.953 41.368 102.953 41.288C102.953 41.16 102.993 41.04 103.073 40.928C103.297 40.608 103.561 40.256 103.865 39.872C104.169 39.488 104.481 39.12 104.801 38.768C105.105 38.448 105.417 38.136 105.737 37.832C106.057 37.528 106.465 37.376 106.961 37.376C107.297 37.376 107.465 37.504 107.465 37.76C107.465 37.984 107.369 38.24 107.177 38.528C107.065 38.704 106.889 39 106.649 39.416C106.409 39.832 106.161 40.288 105.905 40.784C105.665 41.264 105.457 41.712 105.281 42.128C105.105 42.544 105.017 42.848 105.017 43.04C105.017 43.264 105.129 43.376 105.353 43.376C105.529 43.376 105.745 43.288 106.001 43.112C106.257 42.92 106.521 42.696 106.793 42.44C107.289 41.96 107.737 41.44 108.137 40.88C108.553 40.304 108.905 39.752 109.193 39.224C109.497 38.696 109.737 38.264 109.913 37.928C109.945 37.864 109.977 37.792 110.009 37.712C110.057 37.616 110.129 37.56 110.225 37.544C110.321 37.528 110.529 37.52 110.849 37.52C111.169 37.52 111.465 37.456 111.737 37.328H111.785C111.833 37.328 111.857 37.352 111.857 37.4C111.857 37.528 111.753 37.624 111.545 37.688C111.353 37.752 111.129 37.944 110.873 38.264C110.633 38.584 110.393 38.976 110.153 39.44C109.913 39.888 109.697 40.352 109.505 40.832C109.313 41.312 109.169 41.752 109.073 42.152C108.977 42.552 108.953 42.848 109.001 43.04C109.065 43.264 109.177 43.376 109.337 43.376C109.545 43.376 109.833 43.248 110.201 42.992C110.585 42.736 110.977 42.432 111.377 42.08C111.777 41.712 112.105 41.376 112.361 41.072C112.473 40.944 112.577 40.816 112.673 40.688C112.769 40.56 112.833 40.48 112.865 40.448C112.881 40.464 112.897 40.496 112.913 40.544C112.929 40.576 112.937 40.608 112.937 40.64C112.921 40.752 112.881 40.864 112.817 40.976C112.753 41.072 112.681 41.16 112.601 41.24C112.297 41.64 111.929 42.064 111.497 42.512C111.081 42.944 110.625 43.312 110.129 43.616C109.649 43.92 109.153 44.072 108.641 44.072C108.481 44.072 108.297 44.032 108.089 43.952C107.897 43.872 107.801 43.696 107.801 43.424C107.801 43.216 107.857 42.936 107.969 42.584C108.081 42.216 108.201 41.856 108.329 41.504C108.473 41.136 108.593 40.864 108.689 40.688C108.481 40.992 108.225 41.336 107.921 41.72C107.633 42.088 107.337 42.416 107.033 42.704C106.633 43.088 106.201 43.416 105.737 43.688C105.289 43.944 104.825 44.072 104.345 44.072ZM113.863 44.384C113.575 44.384 113.271 44.344 112.951 44.264C112.631 44.184 112.343 44.056 112.087 43.88C111.847 43.688 111.687 43.432 111.607 43.112C111.591 43.064 111.583 42.992 111.583 42.896C111.583 42.672 111.631 42.424 111.727 42.152C111.839 41.88 111.975 41.688 112.135 41.576C112.199 41.544 112.247 41.544 112.279 41.576C112.327 41.608 112.335 41.64 112.303 41.672C112.287 41.72 112.263 41.784 112.231 41.864C112.199 41.928 112.175 42 112.159 42.08C112.111 42.496 112.199 42.864 112.423 43.184C112.519 43.312 112.631 43.432 112.759 43.544C112.903 43.656 113.039 43.752 113.167 43.832C113.279 43.896 113.415 43.944 113.575 43.976C113.735 43.992 113.895 44 114.055 44C114.311 44 114.559 43.968 114.799 43.904C115.039 43.84 115.215 43.736 115.327 43.592C115.535 43.336 115.639 43.048 115.639 42.728C115.639 42.488 115.575 42.232 115.447 41.96C115.319 41.688 115.119 41.4 114.847 41.096C114.671 40.904 114.503 40.696 114.343 40.472C114.183 40.248 114.079 40.008 114.031 39.752C114.015 39.704 113.999 39.656 113.983 39.608C113.983 39.56 113.983 39.512 113.983 39.464C113.775 39.768 113.559 40.056 113.335 40.328C113.127 40.584 112.943 40.808 112.783 41C112.719 41.096 112.663 41.144 112.615 41.144C112.583 41.144 112.567 41.112 112.567 41.048C112.567 40.904 112.631 40.752 112.759 40.592C112.887 40.448 113.031 40.272 113.191 40.064C113.351 39.84 113.479 39.664 113.575 39.536C113.847 39.136 114.047 38.824 114.175 38.6C114.319 38.36 114.471 38.144 114.631 37.952C114.807 37.744 115.023 37.576 115.279 37.448C115.551 37.32 115.831 37.256 116.119 37.256C116.455 37.256 116.759 37.312 117.031 37.424C117.319 37.52 117.471 37.776 117.487 38.192C117.487 38.384 117.447 38.584 117.367 38.792C117.303 38.984 117.231 39.168 117.151 39.344C117.103 39.44 117.031 39.512 116.935 39.56C116.855 39.592 116.815 39.576 116.815 39.512C116.815 39.448 116.823 39.376 116.839 39.296C116.855 39.216 116.863 39.144 116.863 39.08C116.863 38.808 116.815 38.568 116.719 38.36C116.639 38.136 116.519 37.976 116.359 37.88C116.199 37.768 116.031 37.712 115.855 37.712C115.599 37.712 115.351 37.816 115.111 38.024C114.871 38.216 114.751 38.472 114.751 38.792C114.751 38.824 114.751 38.864 114.751 38.912C114.751 38.96 114.759 39 114.775 39.032C114.839 39.288 115.031 39.576 115.351 39.896C115.671 40.216 115.919 40.496 116.095 40.736C116.399 41.152 116.551 41.576 116.551 42.008C116.551 42.44 116.423 42.84 116.167 43.208C115.927 43.56 115.599 43.84 115.183 44.048C114.783 44.272 114.343 44.384 113.863 44.384ZM118.961 44.072C118.801 44.072 118.665 44.04 118.553 43.976C118.441 43.912 118.385 43.792 118.385 43.616C118.385 43.392 118.441 43.128 118.553 42.824C118.681 42.52 118.817 42.216 118.961 41.912C119.105 41.608 119.225 41.36 119.321 41.168C119.401 41.024 119.505 40.8 119.633 40.496C119.777 40.176 119.921 39.848 120.065 39.512C120.225 39.16 120.353 38.864 120.449 38.624C120.561 38.384 120.617 38.264 120.617 38.264C120.473 38.424 120.281 38.648 120.041 38.936C119.817 39.224 119.569 39.528 119.297 39.848C119.041 40.152 118.801 40.44 118.577 40.712C118.369 40.984 118.217 41.184 118.121 41.312C118.073 41.376 118.033 41.408 118.001 41.408C117.969 41.408 117.953 41.368 117.953 41.288C117.953 41.16 117.993 41.04 118.073 40.928C118.265 40.688 118.497 40.4 118.769 40.064C119.041 39.712 119.313 39.36 119.585 39.008C119.873 38.656 120.121 38.344 120.329 38.072C120.201 38.072 120.033 38.08 119.825 38.096C119.633 38.112 119.457 38.136 119.297 38.168C119.137 38.184 119.049 38.192 119.033 38.192C118.953 38.192 118.961 38.128 119.057 38C119.153 37.872 119.281 37.744 119.441 37.616C119.601 37.488 119.721 37.424 119.801 37.424C119.817 37.424 119.945 37.432 120.185 37.448C120.425 37.448 120.601 37.448 120.713 37.448C121.033 37.016 121.345 36.52 121.649 35.96C121.969 35.4 122.281 34.784 122.585 34.112C122.713 34.096 122.929 34.008 123.233 33.848C123.553 33.672 123.801 33.496 123.977 33.32C124.057 33.24 124.121 33.2 124.169 33.2C124.265 33.2 124.265 33.264 124.169 33.392C124.057 33.52 123.865 33.792 123.593 34.208C123.321 34.608 123.017 35.096 122.681 35.672C122.345 36.232 122.025 36.824 121.721 37.448H123.665C123.841 37.448 123.929 37.472 123.929 37.52C123.929 37.584 123.809 37.648 123.569 37.712C123.297 37.792 123.009 37.84 122.705 37.856C122.417 37.872 122.145 37.904 121.889 37.952C121.649 38 121.473 38.104 121.361 38.264C121.265 38.376 121.129 38.616 120.953 38.984C120.777 39.352 120.585 39.776 120.377 40.256C120.185 40.72 120.017 41.192 119.873 41.672C119.729 42.136 119.641 42.528 119.609 42.848V42.944C119.609 43.072 119.649 43.176 119.729 43.256C119.809 43.336 119.889 43.376 119.969 43.376C120.177 43.376 120.441 43.248 120.761 42.992C121.097 42.736 121.441 42.432 121.793 42.08C122.145 41.712 122.449 41.376 122.705 41.072C122.817 40.944 122.913 40.824 122.993 40.712C123.089 40.6 123.145 40.528 123.161 40.496C123.193 40.56 123.209 40.608 123.209 40.64C123.209 40.736 123.177 40.84 123.113 40.952C123.065 41.064 123.009 41.16 122.945 41.24C122.641 41.64 122.273 42.064 121.841 42.512C121.409 42.944 120.945 43.312 120.449 43.616C119.969 43.92 119.473 44.072 118.961 44.072ZM122.903 44.336C122.839 44.336 122.839 44.272 122.903 44.144C122.983 44 123.055 43.84 123.119 43.664C123.199 43.488 123.279 43.296 123.359 43.088C123.519 42.704 123.695 42.272 123.887 41.792C124.079 41.312 124.263 40.848 124.439 40.4C124.615 39.936 124.767 39.544 124.895 39.224C125.039 38.888 125.135 38.672 125.183 38.576C124.959 38.816 124.687 39.12 124.367 39.488C124.063 39.84 123.775 40.184 123.503 40.52C123.231 40.856 123.023 41.12 122.879 41.312C122.831 41.376 122.791 41.408 122.759 41.408C122.727 41.408 122.711 41.368 122.711 41.288C122.711 41.16 122.751 41.04 122.831 40.928C123.135 40.544 123.471 40.112 123.839 39.632C124.223 39.152 124.567 38.712 124.871 38.312C125.175 37.896 125.367 37.624 125.447 37.496C125.623 37.464 125.879 37.416 126.215 37.352C126.567 37.288 126.807 37.2 126.935 37.088C126.983 37.04 127.031 37.016 127.079 37.016C127.111 37.016 127.127 37.048 127.127 37.112C127.143 37.16 127.127 37.216 127.079 37.28C126.983 37.376 126.839 37.584 126.647 37.904C126.471 38.224 126.271 38.592 126.047 39.008C125.823 39.424 125.607 39.824 125.399 40.208C125.559 39.968 125.767 39.688 126.023 39.368C126.295 39.032 126.591 38.712 126.911 38.408C127.231 38.088 127.551 37.824 127.871 37.616C128.207 37.408 128.519 37.304 128.807 37.304C129.015 37.304 129.191 37.352 129.335 37.448C129.479 37.528 129.591 37.68 129.671 37.904C129.719 38.016 129.743 38.144 129.743 38.288C129.743 38.56 129.671 38.824 129.527 39.08C129.399 39.32 129.303 39.504 129.239 39.632C129.223 39.68 129.167 39.728 129.071 39.776C128.975 39.808 128.935 39.792 128.951 39.728C128.967 39.648 128.975 39.568 128.975 39.488C128.991 39.408 128.999 39.32 128.999 39.224C128.999 38.952 128.943 38.704 128.831 38.48C128.735 38.256 128.551 38.144 128.279 38.144C128.023 38.144 127.711 38.304 127.343 38.624C126.975 38.944 126.607 39.312 126.239 39.728C125.775 40.272 125.407 40.792 125.135 41.288C124.863 41.768 124.639 42.24 124.463 42.704C124.367 42.96 124.271 43.216 124.175 43.472C124.079 43.712 124.007 43.904 123.959 44.048C123.751 44.064 123.543 44.112 123.335 44.192C123.127 44.288 122.983 44.336 122.903 44.336ZM134.29 34.832C134.066 34.832 133.906 34.76 133.81 34.616C133.746 34.536 133.714 34.432 133.714 34.304C133.714 34.048 133.834 33.84 134.074 33.68C134.25 33.584 134.41 33.536 134.554 33.536C134.794 33.536 134.962 33.608 135.058 33.752C135.122 33.832 135.154 33.936 135.154 34.064C135.154 34.32 135.026 34.528 134.77 34.688C134.626 34.784 134.466 34.832 134.29 34.832ZM130.114 44.072C129.954 44.072 129.818 44.04 129.706 43.976C129.61 43.912 129.562 43.792 129.562 43.616C129.562 43.392 129.618 43.128 129.73 42.824C129.858 42.52 129.994 42.216 130.138 41.912C130.298 41.608 130.418 41.36 130.498 41.168C130.61 40.944 130.746 40.656 130.906 40.304C131.082 39.936 131.242 39.592 131.386 39.272C131.546 38.936 131.658 38.704 131.722 38.576C131.498 38.816 131.226 39.12 130.906 39.488C130.602 39.84 130.314 40.184 130.042 40.52C129.77 40.856 129.562 41.12 129.418 41.312C129.37 41.376 129.33 41.408 129.298 41.408C129.266 41.408 129.25 41.368 129.25 41.288C129.25 41.16 129.29 41.04 129.37 40.928C129.674 40.544 130.01 40.112 130.378 39.632C130.762 39.152 131.106 38.712 131.41 38.312C131.714 37.896 131.906 37.624 131.986 37.496C132.162 37.464 132.418 37.416 132.754 37.352C133.106 37.288 133.346 37.2 133.474 37.088C133.522 37.04 133.57 37.016 133.618 37.016C133.65 37.016 133.666 37.048 133.666 37.112C133.682 37.16 133.666 37.216 133.618 37.28C133.522 37.392 133.354 37.664 133.114 38.096C132.874 38.528 132.618 39.008 132.346 39.536C132.09 40.048 131.85 40.512 131.626 40.928C131.402 41.36 131.21 41.776 131.05 42.176C130.89 42.576 130.81 42.864 130.81 43.04C130.81 43.264 130.922 43.376 131.146 43.376C131.354 43.376 131.618 43.248 131.938 42.992C132.274 42.736 132.61 42.432 132.946 42.08C133.282 41.712 133.578 41.376 133.834 41.072C133.914 40.976 134.01 40.864 134.122 40.736C134.25 40.592 134.33 40.504 134.362 40.472C134.394 40.504 134.41 40.56 134.41 40.64C134.394 40.752 134.354 40.864 134.29 40.976C134.226 41.072 134.162 41.16 134.098 41.24C133.762 41.656 133.394 42.088 132.994 42.536C132.594 42.968 132.154 43.336 131.674 43.64C131.194 43.928 130.674 44.072 130.114 44.072ZM135.283 44.192C134.627 44.192 134.171 44.064 133.915 43.808C133.659 43.552 133.531 43.24 133.531 42.872C133.531 42.408 133.651 41.912 133.891 41.384C134.147 40.856 134.387 40.408 134.611 40.04C134.867 39.656 135.211 39.256 135.643 38.84C136.075 38.424 136.547 38.072 137.059 37.784C137.571 37.496 138.067 37.352 138.547 37.352C138.963 37.352 139.251 37.456 139.411 37.664C139.571 37.856 139.651 38.088 139.651 38.36C139.651 38.856 139.499 39.264 139.195 39.584C138.907 39.904 138.547 40.168 138.115 40.376C137.683 40.568 137.267 40.728 136.867 40.856C136.627 40.92 136.347 40.984 136.027 41.048C135.707 41.112 135.403 41.144 135.115 41.144C135.003 41.432 134.915 41.712 134.851 41.984C134.787 42.256 134.755 42.504 134.755 42.728C134.755 43 134.819 43.224 134.947 43.4C135.091 43.576 135.323 43.664 135.643 43.664C135.771 43.664 135.923 43.648 136.099 43.616C136.275 43.584 136.467 43.536 136.675 43.472C137.155 43.312 137.627 43.056 138.091 42.704C138.555 42.352 138.979 41.976 139.363 41.576C139.763 41.16 140.067 40.816 140.275 40.544C140.323 40.592 140.347 40.648 140.347 40.712C140.347 40.792 140.291 40.92 140.179 41.096C139.859 41.544 139.443 42.008 138.931 42.488C138.419 42.968 137.851 43.376 137.227 43.712C136.603 44.032 135.955 44.192 135.283 44.192ZM135.307 40.664C135.515 40.68 135.747 40.68 136.003 40.664C136.275 40.632 136.539 40.576 136.795 40.496C137.451 40.304 137.923 40 138.211 39.584C138.515 39.152 138.667 38.768 138.667 38.432C138.667 38.24 138.627 38.08 138.547 37.952C138.467 37.824 138.339 37.76 138.163 37.76C137.699 37.76 137.283 37.936 136.915 38.288C136.547 38.624 136.227 39.016 135.955 39.464C135.683 39.912 135.467 40.312 135.307 40.664ZM141.331 44.384C141.043 44.384 140.739 44.344 140.419 44.264C140.099 44.184 139.811 44.056 139.555 43.88C139.315 43.688 139.155 43.432 139.075 43.112C139.059 43.064 139.051 42.992 139.051 42.896C139.051 42.672 139.099 42.424 139.195 42.152C139.307 41.88 139.443 41.688 139.603 41.576C139.667 41.544 139.715 41.544 139.747 41.576C139.795 41.608 139.803 41.64 139.771 41.672C139.755 41.72 139.731 41.784 139.699 41.864C139.667 41.928 139.643 42 139.627 42.08C139.579 42.496 139.667 42.864 139.891 43.184C139.987 43.312 140.099 43.432 140.227 43.544C140.371 43.656 140.507 43.752 140.635 43.832C140.747 43.896 140.883 43.944 141.043 43.976C141.203 43.992 141.363 44 141.523 44C141.779 44 142.027 43.968 142.267 43.904C142.507 43.84 142.683 43.736 142.795 43.592C143.003 43.336 143.107 43.048 143.107 42.728C143.107 42.488 143.043 42.232 142.915 41.96C142.787 41.688 142.587 41.4 142.315 41.096C142.139 40.904 141.971 40.696 141.811 40.472C141.651 40.248 141.547 40.008 141.499 39.752C141.483 39.704 141.467 39.656 141.451 39.608C141.451 39.56 141.451 39.512 141.451 39.464C141.243 39.768 141.027 40.056 140.803 40.328C140.595 40.584 140.411 40.808 140.251 41C140.187 41.096 140.131 41.144 140.083 41.144C140.051 41.144 140.035 41.112 140.035 41.048C140.035 40.904 140.099 40.752 140.227 40.592C140.355 40.448 140.499 40.272 140.659 40.064C140.819 39.84 140.947 39.664 141.043 39.536C141.315 39.136 141.515 38.824 141.643 38.6C141.787 38.36 141.939 38.144 142.099 37.952C142.275 37.744 142.491 37.576 142.747 37.448C143.019 37.32 143.299 37.256 143.587 37.256C143.923 37.256 144.227 37.312 144.499 37.424C144.787 37.52 144.939 37.776 144.955 38.192C144.955 38.384 144.915 38.584 144.835 38.792C144.771 38.984 144.699 39.168 144.619 39.344C144.571 39.44 144.499 39.512 144.403 39.56C144.323 39.592 144.283 39.576 144.283 39.512C144.283 39.448 144.291 39.376 144.307 39.296C144.323 39.216 144.331 39.144 144.331 39.08C144.331 38.808 144.283 38.568 144.187 38.36C144.107 38.136 143.987 37.976 143.827 37.88C143.667 37.768 143.499 37.712 143.323 37.712C143.067 37.712 142.819 37.816 142.579 38.024C142.339 38.216 142.219 38.472 142.219 38.792C142.219 38.824 142.219 38.864 142.219 38.912C142.219 38.96 142.227 39 142.243 39.032C142.307 39.288 142.499 39.576 142.819 39.896C143.139 40.216 143.387 40.496 143.563 40.736C143.867 41.152 144.019 41.576 144.019 42.008C144.019 42.44 143.891 42.84 143.635 43.208C143.395 43.56 143.067 43.84 142.651 44.048C142.251 44.272 141.811 44.384 141.331 44.384Z" fill="black"/>
</svg>
